<svg width="396" height="231" viewBox="0 0 396 231" fill="none" xmlns="http://www.w3.org/2000/svg">
<rect x="115.507" y="135.747" width="32.1875" height="56.3351" rx="16.0937" transform="rotate(90 115.507 135.747)" fill="white"/>
<rect x="337.258" y="97.585" width="32.1875" height="69.7396" rx="16.0937" transform="rotate(-180 337.258 97.585)" fill="white"/>
<rect x="282.322" y="97.585" width="32.1875" height="69.7396" rx="16.0937" transform="rotate(-180 282.322 97.585)" fill="white"/>
<rect x="267.943" y="107.589" width="32.1875" height="72.9734" rx="16.0937" transform="rotate(-139.005 267.943 107.589)" fill="white"/>
<rect width="32.1875" height="73.8267" rx="16.0937" transform="matrix(0.75477 -0.65599 -0.65599 -0.75477 319.377 107.589)" fill="white"/>
<rect x="389.468" y="212.448" width="32.1875" height="69.7396" rx="16.0937" transform="rotate(-180 389.468 212.448)" fill="white"/>
<rect x="334.532" y="212.448" width="32.1875" height="69.7396" rx="16.0937" transform="rotate(-180 334.532 212.448)" fill="white"/>
<rect width="32.1875" height="72.9654" rx="16.0937" transform="matrix(0.75477 -0.65599 -0.65599 -0.75477 371.588 222.453)" fill="white"/>
<rect x="320.153" y="222.453" width="32.1875" height="72.9734" rx="16.0937" transform="rotate(-139.005 320.153 222.453)" fill="white"/>
<circle cx="203.621" cy="74.8349" r="36.5473" fill="white"/>
<circle cx="253.355" cy="159.376" r="37.5521" fill="white"/>
<path d="M207.371 188.083C207.371 183.504 206.469 178.97 204.716 174.739C202.964 170.509 200.396 166.665 197.158 163.427C193.92 160.189 190.076 157.62 185.845 155.868C181.615 154.116 177.08 153.214 172.501 153.214C167.922 153.214 163.388 154.116 159.157 155.868C154.926 157.62 151.082 160.189 147.844 163.427C144.606 166.665 142.038 170.509 140.286 174.739C138.533 178.97 137.631 183.504 137.631 188.083L207.371 188.083Z" fill="white"/>
<rect x="132.267" y="118.344" width="32.1875" height="112.656" rx="16.0937" fill="white"/>
<rect x="175.183" y="171.99" width="32.1875" height="59.0104" rx="16.0937" fill="white"/>
<rect x="81.9398" y="12.3262" width="32.1875" height="75.1041" rx="16.0937" fill="white"/>
<rect x="124.857" y="12.3262" width="32.1875" height="75.1041" rx="16.0937" fill="white"/>
<rect x="75.0791" y="27.8406" width="32.1875" height="93.9224" rx="16.0937" transform="rotate(-44.1489 75.0791 27.8406)" fill="white"/>
<rect width="32.1875" height="112.656" rx="16.0937" fill="white"/>
<path d="M15.3066 76.0931C9.02164 69.8081 9.02165 59.6181 15.3066 53.3331C21.5916 47.0481 31.7816 47.0481 38.0666 53.3331L69.8202 85.0866C76.1052 91.3716 76.1052 101.562 69.8202 107.847C63.5352 114.132 53.3452 114.132 47.0602 107.847L15.3066 76.0931Z" fill="white"/>
<rect width="32.1875" height="69.7396" rx="16.0937" transform="matrix(0.707107 0.707107 0.707107 -0.707107 3.92639 65.2427)" fill="white"/>
</svg>
