<svg width="588" height="588" viewBox="0 0 588 588" fill="none" xmlns="http://www.w3.org/2000/svg">
<rect width="588" height="588" rx="63" fill="white"/>
<rect x="211.507" y="313.747" width="32.1875" height="56.3351" rx="16.0937" transform="rotate(90 211.507 313.747)" fill="#0059DF"/>
<rect x="433.258" y="275.585" width="32.1875" height="69.7396" rx="16.0937" transform="rotate(-180 433.258 275.585)" fill="#0059DF"/>
<rect x="378.322" y="275.585" width="32.1875" height="69.7396" rx="16.0937" transform="rotate(-180 378.322 275.585)" fill="#0059DF"/>
<rect x="363.943" y="285.589" width="32.1875" height="72.9734" rx="16.0937" transform="rotate(-139.005 363.943 285.589)" fill="#0059DF"/>
<rect width="32.1875" height="73.8267" rx="16.0937" transform="matrix(0.75477 -0.65599 -0.65599 -0.75477 415.378 285.589)" fill="#0059DF"/>
<rect x="485.468" y="390.448" width="32.1875" height="69.7396" rx="16.0937" transform="rotate(-180 485.468 390.448)" fill="#0059DF"/>
<rect x="430.533" y="390.448" width="32.1875" height="69.7396" rx="16.0937" transform="rotate(-180 430.533 390.448)" fill="#0059DF"/>
<rect width="32.1875" height="72.9654" rx="16.0937" transform="matrix(0.75477 -0.65599 -0.65599 -0.75477 467.588 400.453)" fill="#0059DF"/>
<rect x="416.154" y="400.453" width="32.1875" height="72.9734" rx="16.0937" transform="rotate(-139.005 416.154 400.453)" fill="#0059DF"/>
<circle cx="299.621" cy="252.835" r="36.5473" fill="#0059DF"/>
<circle cx="349.355" cy="337.376" r="37.5521" fill="#0059DF"/>
<path d="M303.371 366.083C303.371 361.504 302.469 356.97 300.716 352.739C298.964 348.509 296.396 344.665 293.158 341.427C289.92 338.189 286.076 335.62 281.845 333.868C277.615 332.116 273.08 331.214 268.501 331.214C263.922 331.214 259.388 332.116 255.157 333.868C250.926 335.62 247.082 338.189 243.844 341.427C240.606 344.665 238.038 348.509 236.286 352.739C234.533 356.97 233.631 361.504 233.631 366.083L303.371 366.083Z" fill="#0059DF"/>
<rect x="228.267" y="296.344" width="32.1875" height="112.656" rx="16.0937" fill="#0059DF"/>
<rect x="271.183" y="349.989" width="32.1875" height="59.0104" rx="16.0937" fill="#0059DF"/>
<rect x="177.94" y="190.326" width="32.1875" height="75.1041" rx="16.0937" fill="#0059DF"/>
<rect x="220.857" y="190.326" width="32.1875" height="75.1041" rx="16.0937" fill="#0059DF"/>
<rect x="171.079" y="205.841" width="32.1875" height="93.9224" rx="16.0937" transform="rotate(-44.1489 171.079 205.841)" fill="#0059DF"/>
<rect x="96" y="178" width="32.1875" height="112.656" rx="16.0937" fill="#0059DF"/>
<path d="M111.307 254.093C105.022 247.808 105.022 237.618 111.307 231.333C117.592 225.048 127.782 225.048 134.067 231.333L165.82 263.086C172.105 269.371 172.105 279.561 165.82 285.846C159.535 292.131 149.345 292.131 143.06 285.846L111.307 254.093Z" fill="#0059DF"/>
<rect width="32.1875" height="69.7396" rx="16.0937" transform="matrix(0.707107 0.707107 0.707107 -0.707107 99.9266 243.243)" fill="#0059DF"/>
</svg>
